<?xml version="1.0" encoding="UTF-8"?>
<svg version="1.1" xmlns="http://www.w3.org/2000/svg" width="256" height="256">
<path d="M0 0 C25.21241626 22.72178574 36.17675639 52.04510466 38.45703125 85.20410156 C38.5243644 87.65334482 38.43162704 90.03200696 38.26953125 92.47753906 C38.18960938 93.76402344 38.1096875 95.05050781 38.02734375 96.37597656 C36.6177974 114.37078337 31.14162056 130.81590539 22.26953125 146.47753906 C21.72683594 147.44820312 21.18414062 148.41886719 20.625 149.41894531 C5.70366734 174.36044296 -18.74726816 192.02561508 -46.41796875 200.29003906 C-47.06991211 200.4849292 -47.72185547 200.67981934 -48.39355469 200.88061523 C-58.46049255 203.70618203 -68.48017841 204.84743912 -78.91796875 204.79003906 C-80.00730713 204.78439941 -81.09664551 204.77875977 -82.21899414 204.77294922 C-113.65869342 204.30428866 -143.15491351 191.31516676 -165.29248047 168.99755859 C-187.2596721 145.77723006 -198.52594034 114.84206165 -197.9140625 83.02441406 C-196.36200411 53.03996679 -185.55026449 27.1989795 -164.73046875 5.47753906 C-163.90546875 4.61128906 -163.08046875 3.74503906 -162.23046875 2.85253906 C-161.40546875 2.06878906 -160.58046875 1.28503906 -159.73046875 0.47753906 C-159.12203125 -0.11414063 -158.51359375 -0.70582031 -157.88671875 -1.31542969 C-114.68723767 -41.77581324 -43.06424393 -37.88778571 0 0 Z " fill="#1E1F1C" transform="translate(207.73046875,40.5224609375)"/>
<path d="M0 0 C0.70269516 -0.00014603 1.40539032 -0.00029205 2.12937927 -0.0004425 C4.45062351 0.00025382 6.77178737 0.00803313 9.09301758 0.01586914 C10.70298722 0.01773431 12.31295744 0.01915775 13.92292786 0.02015686 C18.1594703 0.02397421 22.39597843 0.03379785 26.63250732 0.04486084 C30.9559279 0.05509175 35.27935401 0.05965808 39.6027832 0.06469727 C48.08522082 0.0754208 56.56763055 0.09248786 65.05004883 0.11352539 C64.72004883 4.07352539 64.39004883 8.03352539 64.05004883 12.11352539 C53.65504883 12.60852539 53.65504883 12.60852539 43.05004883 13.11352539 C42.46447432 17.58505668 42.46447432 17.58505668 41.88305664 22.05712891 C41.3446612 26.14511802 40.67123084 30.18249317 39.92504883 34.23852539 C38.99180966 40.21872195 38.80033626 46.13505061 38.73754883 52.17602539 C38.71120361 53.55201904 38.71120361 53.55201904 38.68432617 54.95581055 C38.67614528 60.01385434 38.67614528 60.01385434 40.36254883 64.70336914 C42.11607002 66.41684465 42.11607002 66.41684465 45.36254883 66.61352539 C49.74789203 66.01890258 51.74300655 65.04476741 55.05004883 62.11352539 C56.36393958 59.80680741 57.17490382 57.64172208 58.05004883 55.11352539 C59.04004883 55.11352539 60.03004883 55.11352539 61.05004883 55.11352539 C61.01742919 62.92592822 59.25174605 68.21345216 54.05004883 74.11352539 C49.09244878 78.42759081 44.05969961 79.59493372 37.62426758 79.51977539 C33.30611308 78.8383064 30.60620519 76.57823601 28.05004883 73.11352539 C25.41685142 68.03256702 24.5334887 63.7971411 24.61254883 58.05102539 C24.61722168 57.28443604 24.62189453 56.51784668 24.62670898 55.72802734 C24.85312915 46.51935369 26.73777418 37.59858207 28.56274414 28.59838867 C29.56966916 23.46387825 30.2924976 18.29012547 31.05004883 13.11352539 C23.79004883 13.11352539 16.53004883 13.11352539 9.05004883 13.11352539 C9.05004883 16.41352539 9.05004883 19.71352539 9.05004883 23.11352539 C8.72085581 26.35192829 8.3460435 29.52528075 7.86254883 32.73852539 C7.66399292 34.0673877 7.66399292 34.0673877 7.46142578 35.4230957 C6.35096067 42.59342065 5.10833725 49.73851717 3.73754883 56.86352539 C3.5613501 57.85046387 3.38515137 58.83740234 3.20361328 59.85424805 C1.86149987 66.49977377 -0.33063066 72.03500698 -4.94995117 77.11352539 C-8.37831527 79.20235212 -10.93220409 79.61574378 -14.94995117 79.11352539 C-17.32495117 77.55102539 -17.32495117 77.55102539 -18.94995117 75.11352539 C-19.40054886 71.00969486 -19.42034506 68.84319957 -17.15698242 65.33227539 C-16.36678711 64.43508789 -15.5765918 63.53790039 -14.76245117 62.61352539 C-9.50675523 56.00471463 -7.10025175 49.21327422 -4.94995117 41.11352539 C-4.65475586 40.01911133 -4.35956055 38.92469727 -4.05541992 37.79711914 C-2.02629951 29.65065049 -0.92887882 21.44016881 0.05004883 13.11352539 C-11.18917072 13.86817786 -11.18917072 13.86817786 -19.94995117 20.11352539 C-20.60995117 21.10352539 -21.26995117 22.09352539 -21.94995117 23.11352539 C-22.93995117 23.11352539 -23.92995117 23.11352539 -24.94995117 23.11352539 C-23.89794199 15.27787082 -21.1728247 9.71907207 -15.10620117 4.53930664 C-9.90236027 0.6915514 -6.35310501 -0.01108744 0 0 Z " fill="#F0EFEB" transform="translate(107.949951171875,84.886474609375)"/>
<path d="M0 0 C17.49 0 34.98 0 53 0 C53 0.66 53 1.32 53 2 C40.46 2.33 27.92 2.66 15 3 C15.33 4.65 15.66 6.3 16 8 C16 9.32 16 10.64 16 12 C14.576875 12.4021875 14.576875 12.4021875 13.125 12.8125 C9.74732727 13.74986588 9.74732727 13.74986588 8 17 C4.875 17.1875 4.875 17.1875 2 17 C2 14.03 2 11.06 2 8 C0.35 11.3 -1.3 14.6 -3 18 C-3.66 18 -4.32 18 -5 18 C-5.99 15.69 -6.98 13.38 -8 11 C-7.01 11 -6.02 11 -5 11 C-4.67 11.66 -4.34 12.32 -4 13 C-2.68 8.71 -1.36 4.42 0 0 Z " fill="#2B2C29" transform="translate(118,169)"/>
<path d="M0 0 C0.99 0 1.98 0 3 0 C2.67 3.63 2.34 7.26 2 11 C2.99 10.67 3.98 10.34 5 10 C5 8.02 5 6.04 5 4 C5.598125 4.185625 6.19625 4.37125 6.8125 4.5625 C9.16408762 5.22093687 9.16408762 5.22093687 12 4 C12 4.66 12 5.32 12 6 C11.34 6 10.68 6 10 6 C9.67 7.65 9.34 9.3 9 11 C9.66 11 10.32 11 11 11 C11 11.66 11 12.32 11 13 C10.01 13 9.02 13 8 13 C8 12.34 8 11.68 8 11 C7.01 11.66 6.02 12.32 5 13 C2.30078125 13.1953125 2.30078125 13.1953125 -0.6875 13.125 C-2.17830078 13.09792969 -2.17830078 13.09792969 -3.69921875 13.0703125 C-4.45847656 13.04710938 -5.21773438 13.02390625 -6 13 C-6.36363636 7.54545455 -6.36363636 7.54545455 -4.75 5.125 C-3 4 -3 4 1 4 C0.67 2.68 0.34 1.36 0 0 Z " fill="#BEBFBC" transform="translate(113,61)"/>
<path d="M0 0 C17.49 0 34.98 0 53 0 C53 0.33 53 0.66 53 1 C27.755 1.495 27.755 1.495 2 2 C0.68 6.95 -0.64 11.9 -2 17 C-2.99 17.33 -3.98 17.66 -5 18 C-5.99 15.69 -6.98 13.38 -8 11 C-7.01 11 -6.02 11 -5 11 C-4.67 11.66 -4.34 12.32 -4 13 C-2.68 8.71 -1.36 4.42 0 0 Z " fill="#CDCDCB" transform="translate(118,169)"/>
<path d="M0 0 C1.99954746 -0.04254356 4.00041636 -0.04080783 6 0 C7 1 7 1 7.25 4.25 C6.98575692 8.21364619 6.56117684 9.99724095 4 13 C1.4375 13.9375 1.4375 13.9375 -1 14 C-3 12 -3 12 -3.3125 9.5625 C-3 7 -3 7 -1.75 5.1875 C0 4 0 4 4 4 C4 3.01 4 2.02 4 1 C2.68 0.67 1.36 0.34 0 0 Z " fill="#C3C3C1" transform="translate(217,127)"/>
<path d="M0 0 C2.375 0.75 2.375 0.75 3.375 1.75 C3.73397436 8.21153846 3.73397436 8.21153846 1.375 11.75 C-1.125 12.0625 -1.125 12.0625 -3.625 11.75 C-5.625 9.75 -5.625 9.75 -5.9375 6.3125 C-5.625 2.75 -5.625 2.75 -4.4375 0.75 C-2.625 -0.25 -2.625 -0.25 0 0 Z " fill="#D4D5D2" transform="translate(153.625,207.25)"/>
<path d="M0 0 C2.64 0.33 5.28 0.66 8 1 C8 5.29 8 9.58 8 14 C5.36 14 2.72 14 0 14 C0 9.38 0 4.76 0 0 Z " fill="#6A6A68" transform="translate(30,146)"/>
<path d="M0 0 C0.99 0 1.98 0 3 0 C3 3.63 3 7.26 3 11 C3.66 10.67 4.32 10.34 5 10 C5 8.02 5 6.04 5 4 C5.598125 4.185625 6.19625 4.37125 6.8125 4.5625 C9.16408762 5.22093687 9.16408762 5.22093687 12 4 C12 4.66 12 5.32 12 6 C11.01 6.495 11.01 6.495 10 7 C9.34786708 9.02463255 9.34786708 9.02463255 9 11 C9.66 11.33 10.32 11.66 11 12 C10.01 12.33 9.02 12.66 8 13 C8 12.34 8 11.68 8 11 C7.01 11.66 6.02 12.32 5 13 C2.23979004 13.37167184 -0.18852476 13.17850636 -3 13 C-3.66 12.34 -4.32 11.68 -5 11 C-4.625 7.875 -4.625 7.875 -4 5 C-3.01 5.33 -2.02 5.66 -1 6 C-1.66 7.65 -2.32 9.3 -3 11 C-1.68 11 -0.36 11 1 11 C0.67 7.37 0.34 3.74 0 0 Z " fill="#B8B8B6" transform="translate(166,202)"/>
<path d="M0 0 C2.5 0.25 2.5 0.25 4.5 2.25 C4.83661952 5.4142235 4.99943411 7.43513382 3.3125 10.1875 C1.5 11.25 1.5 11.25 -1.125 11 C-3.5 10.25 -3.5 10.25 -4.5 9.25 C-4.6875 5.8125 -4.6875 5.8125 -4.5 2.25 C-2.5 0.25 -2.5 0.25 0 0 Z " fill="#C7C7C5" transform="translate(211.5,174.75)"/>
<path d="M0 0 C0 0.66 0 1.32 0 2 C-0.66 2 -1.32 2 -2 2 C-1.67 3.32 -1.34 4.64 -1 6 C-2.45817797 6.16802051 -3.9165484 6.33437143 -5.375 6.5 C-6.59316406 6.63921875 -6.59316406 6.63921875 -7.8359375 6.78125 C-10 7 -10 7 -12 7 C-12 7.66 -12 8.32 -12 9 C-11.01 9.33 -10.02 9.66 -9 10 C-10.65 10 -12.3 10 -14 10 C-14.90110078 7.05094291 -15.27773867 5.58815249 -13.9375 2.75 C-10.08240412 -0.73202209 -4.94728332 -0.11779246 0 0 Z " fill="#444442" transform="translate(174,66)"/>
<path d="M0 0 C6.15234375 -0.09765625 6.15234375 -0.09765625 8 0 C10.16090886 2.16090886 9.72400131 7.2005847 10 10 C6.7 10 3.4 10 0 10 C0 6.7 0 3.4 0 0 Z " fill="#323230" transform="translate(92,52)"/>
<path d="M0 0 C0.99 0 1.98 0 3 0 C3 1.65 3 3.3 3 5 C4.32 5.33 5.64 5.66 7 6 C7.36075949 11.41139241 7.36075949 11.41139241 5.8125 13.9375 C4 15 4 15 -1 14 C-0.67 9.38 -0.34 4.76 0 0 Z " fill="#CDCECB" transform="translate(57,94)"/>
<path d="M0 0 C1.1446875 0.3403125 1.1446875 0.3403125 2.3125 0.6875 C3.64328101 7.09944487 3.64328101 7.09944487 2.1875 9.6875 C0.3125 10.6875 0.3125 10.6875 -2.3125 10.4375 C-4.6875 9.6875 -4.6875 9.6875 -5.6875 8.6875 C-6.14441383 3.43299098 -6.14441383 3.43299098 -4.5 0.75 C-2.6875 -0.3125 -2.6875 -0.3125 0 0 Z " fill="#D2D2D0" transform="translate(213.6875,68.3125)"/>
<path d="M0 0 C2.5 0.25 2.5 0.25 4.5 2.25 C3.92307692 8.82692308 3.92307692 8.82692308 2.5 10.25 C0.0625 10.4375 0.0625 10.4375 -2.5 10.25 C-4.5 8.25 -4.5 8.25 -4.75 5.25 C-4.43608753 1.48305032 -3.83691092 0.38369109 0 0 Z " fill="#C3C3C1" transform="translate(227.5,110.75)"/>
<path d="M0 0 C1.97909398 -0.02686553 3.95828971 -0.04633375 5.9375 -0.0625 C7.03964844 -0.07410156 8.14179687 -0.08570312 9.27734375 -0.09765625 C12 0 12 0 13 1 C13.14115161 3.67058851 13.04247107 6.32432238 13 9 C12.34 9 11.68 9 11 9 C11 6.69 11 4.38 11 2 C10.01 2 9.02 2 8 2 C8 4.31 8 6.62 8 9 C7.34 9 6.68 9 6 9 C6 6.69 6 4.38 6 2 C5.01 2 4.02 2 3 2 C3.33 4.64 3.66 7.28 4 10 C2.68 10 1.36 10 0 10 C0 6.7 0 3.4 0 0 Z " fill="#CCCCCA" transform="translate(68,123)"/>
<path d="M0 0 C1.65 0.33 3.3 0.66 5 1 C5.4726477 9.19256018 5.4726477 9.19256018 3.5 12.5625 C3.005 13.036875 2.51 13.51125 2 14 C0.35 13.67 -1.3 13.34 -3 13 C-2.67 10.69 -2.34 8.38 -2 6 C-0.35 5.67 1.3 5.34 3 5 C3 4.01 3 3.02 3 2 C2.01 2 1.02 2 0 2 C0 1.34 0 0.68 0 0 Z " fill="#CFCFCD" transform="translate(218,148)"/>
<path d="M0 0 C1.97909398 -0.02686553 3.95828971 -0.04633375 5.9375 -0.0625 C7.03964844 -0.07410156 8.14179687 -0.08570313 9.27734375 -0.09765625 C12 0 12 0 13 1 C13.14115161 3.67058851 13.04247107 6.32432238 13 9 C12.01 8.67 11.02 8.34 10 8 C10.33 6.02 10.66 4.04 11 2 C10.01 2 9.02 2 8 2 C8 4.31 8 6.62 8 9 C7.01 8.67 6.02 8.34 5 8 C5.33 6.02 5.66 4.04 6 2 C5.01 2 4.02 2 3 2 C3 4.31 3 6.62 3 9 C2.01 9 1.02 9 0 9 C0 6.03 0 3.06 0 0 Z " fill="#BBBCBA" transform="translate(40,151)"/>
<path d="M0 0 C0.99 0 1.98 0 3 0 C2.67 1.65 2.34 3.3 2 5 C3.65 5 5.3 5 7 5 C6.25 11.75 6.25 11.75 4 14 C2.35 13.67 0.7 13.34 -1 13 C-0.67 8.71 -0.34 4.42 0 0 Z " fill="#D1D2D0" transform="translate(70,174)"/>
<path d="M0 0 C3.69230769 0.69230769 3.69230769 0.69230769 5 2 C4.94921875 3.99609375 4.94921875 3.99609375 4.6875 6.4375 C4.60886719 7.24058594 4.53023437 8.04367188 4.44921875 8.87109375 C4 11 4 11 2 13 C-0.625 13.125 -0.625 13.125 -3 13 C-3.36666667 7.5 -3.36666667 7.5 -1.625 5.125 C0 4 0 4 2 4 C2 3.34 2 2.68 2 2 C1.01 1.67 0.02 1.34 -1 1 C-0.67 0.67 -0.34 0.34 0 0 Z " fill="#9F9F9D" transform="translate(188,191)"/>
<path d="M0 0 C0.66 0 1.32 0 2 0 C2.66 3.96 3.32 7.92 4 12 C0.16263678 11.04065919 -0.59660228 10.76390737 -3 8 C-3.33 9.98 -3.66 11.96 -4 14 C-4.66 14 -5.32 14 -6 14 C-6.98248524 9.9472484 -7.08159574 6.16138263 -7 2 C-4.11562221 3.29299694 -2.12780579 4.65941363 0 7 C0 4.69 0 2.38 0 0 Z " fill="#D9D9D7" transform="translate(106,22)"/>
<path d="M0 0 C0 2.97 0 5.94 0 9 C-3.37817425 9.84454356 -5.67465243 10.10844919 -9 9 C-9.36337162 5.72965541 -9.28544288 4.39116247 -7.3125 1.6875 C-4.60883753 -0.28544288 -3.27034459 -0.36337162 0 0 Z " fill="#9C9C9A" transform="translate(42,99)"/>
<path d="M0 0 C4.44907205 1.48302402 6.74579392 5.08285501 9 9 C9 9.66 9 10.32 9 11 C6.36 10.67 3.72 10.34 1 10 C1 11.32 1 12.64 1 14 C0.34 14 -0.32 14 -1 14 C-1.02685938 11.85423363 -1.04633088 9.70837355 -1.0625 7.5625 C-1.07410156 6.36753906 -1.08570312 5.17257813 -1.09765625 3.94140625 C-1 1 -1 1 0 0 Z " fill="#B9BAB8" transform="translate(90,26)"/>
<path d="M0 0 C2.4375 0.1875 2.4375 0.1875 3.4375 1.1875 C3.625 4.625 3.625 4.625 3.4375 8.1875 C2.7775 8.8475 2.1175 9.5075 1.4375 10.1875 C-3.11805556 9.63194444 -3.11805556 9.63194444 -4.5625 8.1875 C-4.75 5.25 -4.75 5.25 -4.5625 2.1875 C-2.5625 0.1875 -2.5625 0.1875 0 0 Z " fill="#C3C3C1" transform="translate(205.5625,155.8125)"/>
<path d="M0 0 C3.63 0 7.26 0 11 0 C10.67 0.66 10.34 1.32 10 2 C7.03 1.505 7.03 1.505 4 1 C4.7734375 1.8353125 4.7734375 1.8353125 5.5625 2.6875 C7 5 7 5 6.8125 7.625 C6 10 6 10 4 12 C6.64 12 9.28 12 12 12 C12 12.99 12 13.98 12 15 C8.04 15 4.08 15 0 15 C2 11 2 11 3 10 C3.47274656 5.74528094 2.39014869 3.48563351 0 0 Z " fill="#BCBDBB" transform="translate(137,42)"/>
<path d="M0 0 C0.99 0 1.98 0 3 0 C3 1.32 3 2.64 3 4 C4.32 4.33 5.64 4.66 7 5 C6.125 10.875 6.125 10.875 5 12 C3.02 12 1.04 12 -1 12 C-0.67 8.04 -0.34 4.08 0 0 Z " fill="#C9C9C7" transform="translate(121,174)"/>
<path d="M0 0 C0.928125 0.0825 1.85625 0.165 2.8125 0.25 C2.8125 3.22 2.8125 6.19 2.8125 9.25 C0.1725 9.25 -2.4675 9.25 -5.1875 9.25 C-6.09741047 6.27211118 -6.44710381 4.81502006 -5.125 1.9375 C-3.1875 0.25 -3.1875 0.25 0 0 Z " fill="#A2A2A0" transform="translate(44.1875,74.75)"/>
<path d="M0 0 C3.625 0.375 3.625 0.375 7 1 C7 1.66 7 2.32 7 3 C5.02 3 3.04 3 1 3 C1 4.65 1 6.3 1 8 C2.32 8.66 3.64 9.32 5 10 C5 9.34 5 8.68 5 8 C4.34 8 3.68 8 3 8 C3 7.34 3 6.68 3 6 C4.65 6 6.3 6 8 6 C8 7.65 8 9.3 8 11 C5.21136993 12.39431504 3.07921132 12.25660094 0 12 C-2.44897847 8.32653229 -2.31537716 6.33643601 -2 2 C-1.34 1.34 -0.68 0.68 0 0 Z " fill="#CCCCCA" transform="translate(113,21)"/>
<path d="M0 0 C4.03321763 1.21934486 7.54269479 2.55954927 11 5 C11 5.66 11 6.32 11 7 C9.35 7.33 7.7 7.66 6 8 C6 9.65 6 11.3 6 13 C5.34 13 4.68 13 4 13 C3.13372601 11.40233897 2.28233535 9.79660056 1.4375 8.1875 C0.96183594 7.29417969 0.48617187 6.40085937 -0.00390625 5.48046875 C-1 3 -1 3 0 0 Z " fill="#E0E0DE" transform="translate(46,54)"/>
<path d="M0 0 C0.66 0 1.32 0 2 0 C2 3.96 2 7.92 2 12 C1.01 12 0.02 12 -1 12 C-0.67 9.69 -0.34 7.38 0 5 C-0.66 5 -1.32 5 -2 5 C-2.33 5.99 -2.66 6.98 -3 8 C-3.66 7.67 -4.32 7.34 -5 7 C-4.67 6.34 -4.34 5.68 -4 5 C-4.99 5.495 -4.99 5.495 -6 6 C-6.65555119 8.52733235 -6.65555119 8.52733235 -7 11 C-6.01 11.33 -5.02 11.66 -4 12 C-5.65 11.67 -7.3 11.34 -9 11 C-9.22223194 8.25913944 -9.34781139 6.56036279 -7.875 4.1875 C-5.22464043 2.50893894 -3.06753576 2.79549762 0 3 C0 2.01 0 1.02 0 0 Z " fill="#B0B0AE" transform="translate(178,109)"/>
<path d="M0 0 C0.99 0.33 1.98 0.66 3 1 C2.01 2.485 2.01 2.485 1 4 C3.31 4 5.62 4 8 4 C5 6 5 6 2 6 C2 8.64 2 11.28 2 14 C1.34 14 0.68 14 0 14 C0 11.69 0 9.38 0 7 C-0.61875 7.495 -1.2375 7.99 -1.875 8.5 C-4 10 -4 10 -6 10 C-4.34832443 6.4213696 -2.21713508 3.25179812 0 0 Z " fill="#D8D8D6" transform="translate(194,43)"/>
<path d="M0 0 C1.67542976 0.28604898 3.34385343 0.61781233 5 1 C4.67 2.32 4.34 3.64 4 5 C4.99 5 5.98 5 7 5 C7 5.99 7 6.98 7 8 C4.69 8.33 2.38 8.66 0 9 C-2 6 -2 6 -1.6875 3.375 C-1 1 -1 1 0 0 Z " fill="#B6B7B4" transform="translate(60,45)"/>
<path d="M0 0 C0 2.64 0 5.28 0 8 C-2.31 8 -4.62 8 -7 8 C-7.6875 5.6875 -7.6875 5.6875 -8 3 C-5.90994325 -0.36731366 -3.75103888 -0.30413829 0 0 Z " fill="#A4A4A2" transform="translate(164,178)"/>
<path d="M0 0 C0.5775 0.350625 1.155 0.70125 1.75 1.0625 C1.75 3.7025 1.75 6.3425 1.75 9.0625 C0.76 9.0625 -0.23 9.0625 -1.25 9.0625 C-1.25 6.4225 -1.25 3.7825 -1.25 1.0625 C-2.24 1.5575 -2.24 1.5575 -3.25 2.0625 C-3.25 4.3725 -3.25 6.6825 -3.25 9.0625 C-4.24 9.0625 -5.23 9.0625 -6.25 9.0625 C-6.25 6.0925 -6.25 3.1225 -6.25 0.0625 C-2.25 -0.9375 -2.25 -0.9375 0 0 Z " fill="#B4B4B2" transform="translate(85.25,201.9375)"/>
<path d="M0 0 C0.598125 0.165 1.19625 0.33 1.8125 0.5 C4.25988354 1.05940195 5.63996734 0.75858193 8 0 C8.33 1.65 8.66 3.3 9 5 C5.01080675 6.1004671 1.98919325 6.1004671 -2 5 C-1.125 1.125 -1.125 1.125 0 0 Z " fill="#969795" transform="translate(175,56)"/>
<path d="M0 0 C2.64 0 5.28 0 8 0 C8 2.97 8 5.94 8 9 C7.01 9 6.02 9 5 9 C4.67 7.02 4.34 5.04 4 3 C3.01 4.98 2.02 6.96 1 9 C0.34 9 -0.32 9 -1 9 C-0.67 6.03 -0.34 3.06 0 0 Z " fill="#B8B8B6" transform="translate(59,151)"/>
<path d="M0 0 C1.32 0 2.64 0 4 0 C4 0.66 4 1.32 4 2 C2.68 2 1.36 2 0 2 C0 3.32 0 4.64 0 6 C0.66 6.33 1.32 6.66 2 7 C1.01 7 0.02 7 -1 7 C-1.103125 8.258125 -1.20625 9.51625 -1.3125 10.8125 C-1.64657811 13.50898757 -1.82977893 14.76317068 -3.4375 17 C-5 18 -5 18 -7 18 C-7 17.34 -7 16.68 -7 16 C-6.34 15.67 -5.68 15.34 -5 15 C-4.53348793 12.87423218 -4.53348793 12.87423218 -4.375 10.4375 C-4.30023437 9.61121094 -4.22546875 8.78492187 -4.1484375 7.93359375 C-4.09945313 7.29550781 -4.05046875 6.65742187 -4 6 C-3.34 6 -2.68 6 -2 6 C-1.855625 5.195625 -1.71125 4.39125 -1.5625 3.5625 C-1 1 -1 1 0 0 Z " fill="#C1C2C0" transform="translate(30,119)"/>
<path d="M0 0 C0 2.97 0 5.94 0 9 C-1.98 9 -3.96 9 -6 9 C-6.36521739 3.52173913 -6.36521739 3.52173913 -4.6875 1.125 C-3 0 -3 0 0 0 Z " fill="#C4C4C2" transform="translate(113,65)"/>
<path d="M0 0 C2.4375 0.75 2.4375 0.75 4.4375 1.75 C4.4375 2.74 4.4375 3.73 4.4375 4.75 C3.7775 4.75 3.1175 4.75 2.4375 4.75 C2.1075 4.09 1.7775 3.43 1.4375 2.75 C-0.53006452 2.78122943 -0.53006452 2.78122943 -2.5625 3.75 C-3.8670656 6.74615946 -3.8670656 6.74615946 -4.5625 9.75 C-2.9125 9.75 -1.2625 9.75 0.4375 9.75 C0.4375 10.41 0.4375 11.07 0.4375 11.75 C-1.9375 11.875 -1.9375 11.875 -4.5625 11.75 C-5.2225 11.09 -5.8825 10.43 -6.5625 9.75 C-6.37565164 6.32444675 -6.15044945 3.69071912 -4.3125 0.75 C-2.5625 -0.25 -2.5625 -0.25 0 0 Z " fill="#D7D8D5" transform="translate(187.5625,37.25)"/>
<path d="M0 0 C0.598125 0.226875 1.19625 0.45375 1.8125 0.6875 C2.1425 2.3375 2.4725 3.9875 2.8125 5.6875 C-0.1575 5.1925 -0.1575 5.1925 -3.1875 4.6875 C-2.22884491 7.01825929 -2.22884491 7.01825929 0.8125 8.6875 C-0.85361905 8.730221 -2.52132885 8.72813832 -4.1875 8.6875 C-5.1875 7.6875 -5.1875 7.6875 -5.4375 5.3125 C-5.1875 2.6875 -5.1875 2.6875 -3.9375 0.8125 C-2.1875 -0.3125 -2.1875 -0.3125 0 0 Z " fill="#DADBD9" transform="translate(169.1875,31.3125)"/>
<path d="M0 0 C0.61875 0.165 1.2375 0.33 1.875 0.5 C4.16786836 1.23577017 4.16786836 1.23577017 7 0 C7 0.66 7 1.32 7 2 C6.01 2.495 6.01 2.495 5 3 C4.34786708 5.02463255 4.34786708 5.02463255 4 7 C4.66 7 5.32 7 6 7 C6 7.66 6 8.32 6 9 C4.35 8.67 2.7 8.34 1 8 C0.67 8.66 0.34 9.32 0 10 C-0.99 10 -1.98 10 -3 10 C-3 9.01 -3 8.02 -3 7 C-2.01 6.67 -1.02 6.34 0 6 C0.73323796 3.98491642 0.73323796 3.98491642 1 2 C0.34 1.67 -0.32 1.34 -1 1 C-0.67 0.67 -0.34 0.34 0 0 Z " fill="#A7A8A6" transform="translate(110,210)"/>
<path d="M0 0 C0.66 0 1.32 0 2 0 C2.19573608 1.43640171 2.38127816 2.87419504 2.5625 4.3125 C2.66691406 5.11300781 2.77132812 5.91351563 2.87890625 6.73828125 C3 9 3 9 2 12 C1.34 12 0.68 12 0 12 C0 11.01 0 10.02 0 9 C-1.32 9 -2.64 9 -4 9 C-3.35494404 5.51669784 -2.01782732 2.90567134 0 0 Z " fill="#B3B3B1" transform="translate(152,174)"/>
<path d="M0 0 C2.33944736 0.28730055 4.6739143 0.61936779 7 1 C6.67 3.31 6.34 5.62 6 8 C6.66 8.33 7.32 8.66 8 9 C6.68 9 5.36 9 4 9 C4.33 7.02 4.66 5.04 5 3 C2.7522025 5.05233685 1.9977758 6.00667261 1 9 C0.34 9 -0.32 9 -1 9 C-1.09765625 2.84765625 -1.09765625 2.84765625 -1 1 C-0.67 0.67 -0.34 0.34 0 0 Z " fill="#C8C8C6" transform="translate(157,51)"/>
<path d="M0 0 C0.66 0.66 1.32 1.32 2 2 C1.56261178 4.6213539 1.02408718 7.01638905 0.3125 9.5625 C0.13783203 10.26052734 -0.03683594 10.95855469 -0.21679688 11.67773438 C-0.76171875 13.69140625 -0.76171875 13.69140625 -2 17 C-2.99 17.33 -3.98 17.66 -5 18 C-5.99 15.69 -6.98 13.38 -8 11 C-7.01 11 -6.02 11 -5 11 C-4.67 11.66 -4.34 12.32 -4 13 C-2.68 8.71 -1.36 4.42 0 0 Z " fill="#ABABA9" transform="translate(118,169)"/>
<path d="M0 0 C0.78375 0.04125 1.5675 0.0825 2.375 0.125 C2.045 1.445 1.715 2.765 1.375 4.125 C0.055 4.455 -1.265 4.785 -2.625 5.125 C-2.625 5.785 -2.625 6.445 -2.625 7.125 C-1.305 7.455 0.015 7.785 1.375 8.125 C-0.28114657 8.50718767 -1.94957024 8.83895102 -3.625 9.125 C-4.625 8.125 -4.625 8.125 -4.8125 5.1875 C-4.57390036 1.29037256 -3.98646018 0.18983144 0 0 Z " fill="#B3B3B1" transform="translate(207.625,93.875)"/>
<path d="M0 0 C0.33 3.96 0.66 7.92 1 12 C-0.98 12 -2.96 12 -5 12 C-4.34 9.03 -3.68 6.06 -3 3 C-3.66 2.67 -4.32 2.34 -5 2 C-2 0 -2 0 0 0 Z " fill="#B0B0AE" transform="translate(188,67)"/>
<path d="M0 0 C2.97 0.33 5.94 0.66 9 1 C9 1.66 9 2.32 9 3 C7.68 3 6.36 3 5 3 C5.020625 4.093125 5.04125 5.18625 5.0625 6.3125 C5 10 5 10 4 13 C3.34 13 2.68 13 2 13 C2.33 9.37 2.66 5.74 3 2 C2.01 2 1.02 2 0 2 C0 1.34 0 0.68 0 0 Z " fill="#D5D5D3" transform="translate(142,21)"/>
<path d="M0 0 C2.0625 0.4375 2.0625 0.4375 4 1 C4 3.31 4 5.62 4 8 C2.68 8.33 1.36 8.66 0 9 C-1.36623674 6.26752652 -1.128426 4.01801098 -1 1 C-0.67 0.67 -0.34 0.34 0 0 Z " fill="#323230" transform="translate(151,209)"/>
<path d="M0 0 C2.64 0 5.28 0 8 0 C8 0.66 8 1.32 8 2 C7.34 2 6.68 2 6 2 C6.33 3.98 6.66 5.96 7 8 C6.01 8 5.02 8 4 8 C3.67 6.68 3.34 5.36 3 4 C2.67 5.32 2.34 6.64 2 8 C1.34 8 0.68 8 0 8 C0 5.36 0 2.72 0 0 Z " fill="#AFB0AE" transform="translate(183,113)"/>
<path d="M0 0 C1.98 0 3.96 0 6 0 C6.97608217 2.92824652 7.08226668 4.95613276 7 8 C6.01 8 5.02 8 4 8 C3.67 6.68 3.34 5.36 3 4 C2.34 5.32 1.68 6.64 1 8 C0.67 8 0.34 8 0 8 C0 5.36 0 2.72 0 0 Z " fill="#ADADAB" transform="translate(73,93)"/>
<path d="M0 0 C0.86625 0.2784375 0.86625 0.2784375 1.75 0.5625 C4.20692525 1.04023546 5.64397534 0.75729364 8 0 C7.2884375 0.61875 7.2884375 0.61875 6.5625 1.25 C4.83733482 3.182185 4.43415125 4.48192275 4 7 C4.99 7.33 5.98 7.66 7 8 C5.68 8.33 4.36 8.66 3 9 C3 8.34 3 7.68 3 7 C1.35 7.66 -0.3 8.32 -2 9 C-2 8.34 -2 7.68 -2 7 C-1.34 6.67 -0.68 6.34 0 6 C0 4.02 0 2.04 0 0 Z " fill="#BCBCBA" transform="translate(51,75)"/>
<path d="M0 0 C0.598125 0.185625 1.19625 0.37125 1.8125 0.5625 C4.16408762 1.22093687 4.16408762 1.22093687 7 0 C7 0.66 7 1.32 7 2 C6.01 2.495 6.01 2.495 5 3 C4.34786708 5.02463255 4.34786708 5.02463255 4 7 C4.66 7 5.32 7 6 7 C6 7.66 6 8.32 6 9 C5.236875 8.814375 4.47375 8.62875 3.6875 8.4375 C0.91032625 7.77180827 0.91032625 7.77180827 -2 9 C-2 8.34 -2 7.68 -2 7 C-1.34 6.67 -0.68 6.34 0 6 C0 4.02 0 2.04 0 0 Z " fill="#BFBFBD" transform="translate(76,75)"/>
<path d="M0 0 C3 1 3 1 5 4 C5.33 2.68 5.66 1.36 6 0 C6.66 0 7.32 0 8 0 C7.46799297 4.52205979 5.87701732 7.4836455 3 11 C0.25 11.875 0.25 11.875 -2 12 C-2 11.34 -2 10.68 -2 10 C-0.68 10 0.64 10 2 10 C1.34 6.7 0.68 3.4 0 0 Z " fill="#C6C7C5" transform="translate(134,67)"/>
<path d="M0 0 C1.32 0 2.64 0 4 0 C4 2.31 4 4.62 4 7 C2.02 7 0.04 7 -2 7 C-2.125 4.625 -2.125 4.625 -2 2 C-1.34 1.34 -0.68 0.68 0 0 Z " fill="#A3A4A2" transform="translate(139,199)"/>
<path d="M0 0 C2.64 0 5.28 0 8 0 C7.2884375 0.61875 7.2884375 0.61875 6.5625 1.25 C4.83733482 3.182185 4.43415125 4.48192275 4 7 C4.99 7.33 5.98 7.66 7 8 C5.68 8 4.36 8 3 8 C1.32774271 8.30404678 -0.34080104 8.63128912 -2 9 C-2 8.34 -2 7.68 -2 7 C-1.01 6.34 -0.02 5.68 1 5 C0.67 3.35 0.34 1.7 0 0 Z " fill="#B8B8B6" transform="translate(185,177)"/>
<path d="M0 0 C2.31 0 4.62 0 7 0 C7 0.66 7 1.32 7 2 C6.34 2 5.68 2 5 2 C4.5359375 2.928125 4.5359375 2.928125 4.0625 3.875 C3.375 5.25 2.6875 6.625 2 8 C3.32 7.67 4.64 7.34 6 7 C6 7.66 6 8.32 6 9 C3.36 9 0.72 9 -2 9 C-0.68 7.02 0.64 5.04 2 3 C1.34 2.67 0.68 2.34 0 2 C0 1.34 0 0.68 0 0 Z " fill="#C3C4C1" transform="translate(226,131)"/>
<path d="M0 0 C3.62349393 2.89879515 4.90459714 4.24870249 5.5 8.9375 C5.26563442 12.79720823 3.99411694 15.67647177 2 19 C1.34 18.67 0.68 18.34 0 18 C0.33 17.484375 0.66 16.96875 1 16.4375 C3.30704414 10.81407992 1.80047253 5.51394711 0 0 Z " fill="#BEBEBC" transform="translate(65,93)"/>
<path d="M0 0 C0.66 0 1.32 0 2 0 C2 0.66 2 1.32 2 2 C3.65 1.34 5.3 0.68 7 0 C7 0.66 7 1.32 7 2 C6.01 2.495 6.01 2.495 5 3 C5 4.98 5 6.96 5 9 C4.401875 8.835 3.80375 8.67 3.1875 8.5 C0.88655664 7.8885876 0.88655664 7.8885876 -2 8 C-1.649375 7.401875 -1.29875 6.80375 -0.9375 6.1875 C0.33304698 3.89186786 0.33304698 3.89186786 -1 1 C-0.67 0.67 -0.34 0.34 0 0 Z " fill="#BCBDBB" transform="translate(115,43)"/>
<path d="M0 0 C0.33 0 0.66 0 1 0 C1.0825 0.763125 1.165 1.52625 1.25 2.3125 C2.14615794 5.52373261 3.21611025 6.29374499 6 8 C4.35 8 2.7 8 1 8 C1 8.99 1 9.98 1 11 C0.34 11 -0.32 11 -1 11 C-1 9.35 -1 7.7 -1 6 C-2.32 5.34 -3.64 4.68 -5 4 C-4.01 3.67 -3.02 3.34 -2 3 C-1.34 2.01 -0.68 1.02 0 0 Z " fill="#D4D4D2" transform="translate(70,39)"/>
<path d="M0 0 C0 0.66 0 1.32 0 2 C-0.66 2 -1.32 2 -2 2 C-1.505 3.093125 -1.01 4.18625 -0.5 5.3125 C1 9 1 9 1 12 C0.34 12 -0.32 12 -1 12 C-4 6.25 -4 6.25 -4 4 C-5.32 3.67 -6.64 3.34 -8 3 C-3.375 0 -3.375 0 0 0 Z " fill="#D5D6D4" transform="translate(85,29)"/>
<path d="M0 0 C1.32 0 2.64 0 4 0 C4 0.66 4 1.32 4 2 C3.01 2 2.02 2 1 2 C0.67 3.32 0.34 4.64 0 6 C0.66 6.33 1.32 6.66 2 7 C0.35 6.67 -1.3 6.34 -3 6 C-3 5.34 -3 4.68 -3 4 C-5.31 4 -7.62 4 -10 4 C-10 3.34 -10 2.68 -10 2 C-8.72125 2.04125 -7.4425 2.0825 -6.125 2.125 C-3.98128508 2.24212873 -3.98128508 2.24212873 -2 2 C-1.34 1.34 -0.68 0.68 0 0 Z " fill="#969694" transform="translate(52,164)"/>
<path d="M0 0 C0.598125 0.165 1.19625 0.33 1.8125 0.5 C4.11344336 1.1114124 4.11344336 1.1114124 7 1 C6.34 1.66 5.68 2.32 5 3 C4.3574765 5.06874034 4.3574765 5.06874034 4 7 C4.66 7.33 5.32 7.66 6 8 C4.68 8 3.36 8 2 8 C0.65835921 8.2981424 -0.67851173 8.62243192 -2 9 C-2 8.34 -2 7.68 -2 7 C-1.34 6.67 -0.68 6.34 0 6 C0 4.02 0 2.04 0 0 Z " fill="#B8B9B7" transform="translate(184,157)"/>
<path d="M0 0 C1.98 0 3.96 0 6 0 C4.125 4.875 4.125 4.875 3 6 C3.66 6.33 4.32 6.66 5 7 C5 7.66 5 8.32 5 9 C2.69 9 0.38 9 -2 9 C-0.68 7.02 0.64 5.04 2 3 C1.34 2.67 0.68 2.34 0 2 C0 1.34 0 0.68 0 0 Z " fill="#C0C0BE" transform="translate(186,133)"/>
<path d="M0 0 C2.31 0 4.62 0 7 0 C5.02 0.99 5.02 0.99 3 2 C3.33 4.64 3.66 7.28 4 10 C2.68 10 1.36 10 0 10 C0 6.7 0 3.4 0 0 Z " fill="#999997" transform="translate(68,123)"/>
<path d="M0 0 C0.598125 0.165 1.19625 0.33 1.8125 0.5 C4.11344336 1.1114124 4.11344336 1.1114124 7 1 C6.34 1.66 5.68 2.32 5 3 C4.3574765 5.06874034 4.3574765 5.06874034 4 7 C4.66 7.33 5.32 7.66 6 8 C4.68 8 3.36 8 2 8 C0.65835921 8.2981424 -0.67851173 8.62243192 -2 9 C-2 8.34 -2 7.68 -2 7 C-1.34 6.67 -0.68 6.34 0 6 C0 4.02 0 2.04 0 0 Z " fill="#CACBC8" transform="translate(42,124)"/>
<path d="M0 0 C2.5 1.1875 2.5 1.1875 5 3 C5.3125 5.6875 5.3125 5.6875 5 8 C5.66 8.33 6.32 8.66 7 9 C3.4071892 9.95808288 1.61524247 10.20508082 -2 9 C-1.34 8.34 -0.68 7.68 0 7 C0.16677282 3.41656024 0.16677282 3.41656024 0 0 Z " fill="#292927" transform="translate(64,42)"/>
<path d="M0 0 C1.65 0 3.3 0 5 0 C5.84454356 3.37817425 6.10844919 5.67465243 5 9 C4.01 8.67 3.02 8.34 2 8 C2.33 7.01 2.66 6.02 3 5 C2.01 5 1.02 5 0 5 C0 5.99 0 6.98 0 8 C-0.66 8 -1.32 8 -2 8 C-1.67 6.68 -1.34 5.36 -1 4 C0.65 4 2.3 4 4 4 C4 3.34 4 2.68 4 2 C2.68 2 1.36 2 0 2 C0 1.34 0 0.68 0 0 Z " fill="#D6D6D4" transform="translate(152,27)"/>
<path d="M0 0 C2.00720923 0.28674418 4.0085944 0.61866701 6 1 C5.01 3.31 4.02 5.62 3 8 C3.66 8.33 4.32 8.66 5 9 C2.36 9 -0.28 9 -3 9 C-2.34 8.34 -1.68 7.68 -1 7 C-0.95919217 5.00041636 -0.95745644 2.99954746 -1 1 C-0.67 0.67 -0.34 0.34 0 0 Z " fill="#B7B7B5" transform="translate(88,123)"/>
<path d="M0 0 C1.65 0.33 3.3 0.66 5 1 C4.67 2.65 4.34 4.3 4 6 C2.68 6.33 1.36 6.66 0 7 C-1.125 2.25 -1.125 2.25 0 0 Z " fill="#888987" transform="translate(137,231)"/>
<path d="M0 0 C0.598125 0.185625 1.19625 0.37125 1.8125 0.5625 C4.16408762 1.22093687 4.16408762 1.22093687 7 0 C7 0.66 7 1.32 7 2 C6.01 2.495 6.01 2.495 5 3 C5 4.98 5 6.96 5 9 C4.401875 8.835 3.80375 8.67 3.1875 8.5 C0.88655664 7.8885876 0.88655664 7.8885876 -2 8 C-1.34 7.34 -0.68 6.68 0 6 C0.16681109 2.91652174 0.16681109 2.91652174 0 0 Z " fill="#BDBEBC" transform="translate(87,187)"/>
<path d="M0 0 C0.433125 0.474375 0.86625 0.94875 1.3125 1.4375 C3.02309613 3.23686957 3.02309613 3.23686957 6 4 C5.01 4.33 4.02 4.66 3 5 C3 6.98 3 8.96 3 11 C2.34 11 1.68 11 1 11 C1 9.68 1 8.36 1 7 C-0.32 7.33 -1.64 7.66 -3 8 C-3 7.34 -3 6.68 -3 6 C-2.34 5.67 -1.68 5.34 -1 5 C-0.34444881 2.47266765 -0.34444881 2.47266765 0 0 Z " fill="#D0D1CF" transform="translate(175,34)"/>
<path d="M0 0 C1.65 0.33 3.3 0.66 5 1 C4.125 5.75 4.125 5.75 3 8 C3.66 8 4.32 8 5 8 C5 8.66 5 9.32 5 10 C3.02 10 1.04 10 -1 10 C-0.71125 9.443125 -0.4225 8.88625 -0.125 8.3125 C1.0413253 5.91505355 2.0339881 3.48403061 3 1 C1.02 1.99 1.02 1.99 -1 3 C-0.67 2.01 -0.34 1.02 0 0 Z " fill="#C7C7C5" transform="translate(135,217)"/>
<path d="M0 0 C0.66 0 1.32 0 2 0 C2.33 0.99 2.66 1.98 3 3 C5.01508358 3.73323796 5.01508358 3.73323796 7 4 C6.67 5.32 6.34 6.64 6 8 C5.67 7.34 5.34 6.68 5 6 C4.01 5.67 3.02 5.34 2 5 C2 6.98 2 8.96 2 11 C1.34 11 0.68 11 0 11 C0 7.37 0 3.74 0 0 Z " fill="#D3D3D1" transform="translate(99,175)"/>
<path d="M0 0 C0.763125 0.0825 1.52625 0.165 2.3125 0.25 C2.3125 1.57 2.3125 2.89 2.3125 4.25 C1.6525 4.25 0.9925 4.25 0.3125 4.25 C0.3125 3.26 0.3125 2.27 0.3125 1.25 C-0.6775 1.745 -0.6775 1.745 -1.6875 2.25 C-2.34522428 5.27934491 -2.34522428 5.27934491 -2.6875 8.25 C-1.6975 8.58 -0.7075 8.91 0.3125 9.25 C-1.3375 9.25 -2.9875 9.25 -4.6875 9.25 C-5.60804342 6.23731243 -5.96611489 4.82270838 -4.5625 1.9375 C-2.6875 0.25 -2.6875 0.25 0 0 Z " fill="#CECFCD" transform="translate(164.6875,66.75)"/>
<path d="M0 0 C1.67542976 0.28604898 3.34385343 0.61781233 5 1 C5.33 1.99 5.66 2.98 6 4 C4.68 4 3.36 4 2 4 C2 4.66 2 5.32 2 6 C2.66 6 3.32 6 4 6 C4 6.66 4 7.32 4 8 C0.125 7.125 0.125 7.125 -1 6 C-1.125 3.5 -1.125 3.5 -1 1 C-0.67 0.67 -0.34 0.34 0 0 Z " fill="#2D2D2B" transform="translate(114,23)"/>
<path d="M0 0 C1.65 0.33 3.3 0.66 5 1 C4.45276317 4.37462715 3.9451 6.08235 2 9 C2.99 8.67 3.98 8.34 5 8 C5 8.66 5 9.32 5 10 C3.02 10 1.04 10 -1 10 C0.33333333 7.33333333 1.66666667 4.66666667 3 2 C1.68 2.33 0.36 2.66 -1 3 C-0.67 2.01 -0.34 1.02 0 0 Z " fill="#C1C1BF" transform="translate(130,196)"/>
<path d="M0 0 C0.99 0 1.98 0 3 0 C3 0.66 3 1.32 3 2 C3.66 2.33 4.32 2.66 5 3 C4.67 4.32 4.34 5.64 4 7 C4.99 7.33 5.98 7.66 7 8 C3.84319701 8.84181413 1.27427197 9 -2 9 C-2 8.34 -2 7.68 -2 7 C-1.01 7 -0.02 7 1 7 C1.33 5.35 1.66 3.7 2 2 C1.34 2 0.68 2 0 2 C0 1.34 0 0.68 0 0 Z " fill="#B9BAB8" transform="translate(43,179)"/>
<path d="M0 0 C0.99 0 1.98 0 3 0 C3 0.66 3 1.32 3 2 C3.66 2.33 4.32 2.66 5 3 C4.67 4.32 4.34 5.64 4 7 C4.99 7.33 5.98 7.66 7 8 C5.68 8.33 4.36 8.66 3 9 C3 8.34 3 7.68 3 7 C2.34 7 1.68 7 1 7 C1 7.66 1 8.32 1 9 C0.01 9 -0.98 9 -2 9 C-2 8.34 -2 7.68 -2 7 C-1.01 6.34 -0.02 5.68 1 5 C1.33 4.01 1.66 3.02 2 2 C1.34 2 0.68 2 0 2 C0 1.34 0 0.68 0 0 Z " fill="#B9B9B7" transform="translate(225,153)"/>
<path d="M0 0 C1.65 0 3.3 0 5 0 C5 0.66 5 1.32 5 2 C3.68 1.67 2.36 1.34 1 1 C1.33 1.66 1.66 2.32 2 3 C2.99 3.33 3.98 3.66 5 4 C4.67 5.65 4.34 7.3 4 9 C2.35 9 0.7 9 -1 9 C-1 8.34 -1 7.68 -1 7 C0.32 7.33 1.64 7.66 3 8 C2.319375 7.4225 1.63875 6.845 0.9375 6.25 C0.298125 5.5075 -0.34125 4.765 -1 4 C-0.75 1.75 -0.75 1.75 0 0 Z " fill="#CFD0CE" transform="translate(80,52)"/>
<path d="M0 0 C0.66 0 1.32 0 2 0 C2 0.99 2 1.98 2 3 C2.99 3 3.98 3 5 3 C5 3.66 5 4.32 5 5 C4.01 5 3.02 5 2 5 C2 6.32 2 7.64 2 9 C1.34 9 0.68 9 0 9 C0 7.68 0 6.36 0 5 C-1.32 5 -2.64 5 -4 5 C-4 4.34 -4 3.68 -4 3 C-2.68 3 -1.36 3 0 3 C0 2.01 0 1.02 0 0 Z " fill="#B3B4B2" transform="translate(48,99)"/>
<path d="M0 0 C0.625 1.8125 0.625 1.8125 1 4 C0.01 5.485 0.01 5.485 -1 7 C-0.34 7.33 0.32 7.66 1 8 C1 8.66 1 9.32 1 10 C-0.98 10 -2.96 10 -5 10 C-3.66666667 7.33333333 -2.33333333 4.66666667 -1 2 C-2.32 2.33 -3.64 2.66 -5 3 C-5 2.34 -5 1.68 -5 1 C-3 0 -3 0 0 0 Z " fill="#B9B9B7" transform="translate(223,84)"/>
<path d="M0 0 C3.63 0 7.26 0 11 0 C10.67 0.66 10.34 1.32 10 2 C7.03 1.505 7.03 1.505 4 1 C4.515625 1.5775 5.03125 2.155 5.5625 2.75 C7 5 7 5 6.6875 7.25 C6.460625 7.8275 6.23375 8.405 6 9 C3.52806709 6.03368051 1.74381547 3.48763093 0 0 Z " fill="#DFDFDD" transform="translate(137,42)"/>
<path d="M0 0 C0.99 0 1.98 0 3 0 C3 4.62 3 9.24 3 14 C2.01 14 1.02 14 0 14 C0 9.38 0 4.76 0 0 Z " fill="#C7C7C6" transform="translate(68,197)"/>
<path d="M0 0 C0.99 0 1.98 0 3 0 C3 4.62 3 9.24 3 14 C2.01 13.67 1.02 13.34 0 13 C0 8.71 0 4.42 0 0 Z " fill="#C3C3C1" transform="translate(30,146)"/>
<path d="M0 0 C0.66 0 1.32 0 2 0 C2.33 0.66 2.66 1.32 3 2 C3.33 1.34 3.66 0.68 4 0 C4.66 0 5.32 0 6 0 C5.67 2.31 5.34 4.62 5 7 C2.03 6.505 2.03 6.505 -1 6 C-1.042721 4.33388095 -1.04063832 2.66617115 -1 1 C-0.67 0.67 -0.34 0.34 0 0 Z " fill="#3D3D3B" transform="translate(172,114)"/>
<path d="M0 0 C1.32 0.66 2.64 1.32 4 2 C4 4.64 4 7.28 4 10 C3.01 10 2.02 10 1 10 C1 7.36 1 4.72 1 2 C0.34 1.67 -0.32 1.34 -1 1 C-0.67 0.67 -0.34 0.34 0 0 Z " fill="#A9A9A7" transform="translate(88,201)"/>
<path d="M0 0 C1.32 0.33 2.64 0.66 4 1 C4.625 2.875 4.625 2.875 5 5 C3 7 3 7 0.375 7.125 C-0.40875 7.08375 -1.1925 7.0425 -2 7 C-1.34 6.67 -0.68 6.34 0 6 C0 4.02 0 2.04 0 0 Z " fill="#686866" transform="translate(101,180)"/>
<path d="M0 0 C0.78375 0.04125 1.5675 0.0825 2.375 0.125 C2.375 0.785 2.375 1.445 2.375 2.125 C1.055 2.125 -0.265 2.125 -1.625 2.125 C-1.955 3.775 -2.285 5.425 -2.625 7.125 C-1.305 6.795 0.015 6.465 1.375 6.125 C1.045 7.115 0.715 8.105 0.375 9.125 C-1.275 8.795 -2.925 8.465 -4.625 8.125 C-4.75 5.25 -4.75 5.25 -4.625 2.125 C-2.625 0.125 -2.625 0.125 0 0 Z " fill="#BCBCBA" transform="translate(89.625,74.875)"/>
<path d="M0 0 C5.75 1.75 5.75 1.75 8 4 C7.34 4 6.68 4 6 4 C5.67 4.99 5.34 5.98 5 7 C4.34 7 3.68 7 3 7 C1.04783565 5.04783565 0.15173355 3.46800047 -1 1 C-0.67 0.67 -0.34 0.34 0 0 Z " fill="#A3A4A1" transform="translate(46,54)"/>
<path d="M0 0 C0.66 0.33 1.32 0.66 2 1 C2 4.3 2 7.6 2 11 C0.68 11 -0.64 11 -2 11 C-1.7215625 9.824375 -1.7215625 9.824375 -1.4375 8.625 C-0.74037734 6.02910225 -0.74037734 6.02910225 -2 4 C-1.01 4 -0.02 4 1 4 C0.67 2.68 0.34 1.36 0 0 Z " fill="#4B4C4A" transform="translate(165,202)"/>
<path d="M0 0 C0.99 0 1.98 0 3 0 C3 2.64 3 5.28 3 8 C1.68 7.67 0.36 7.34 -1 7 C-0.67 4.69 -0.34 2.38 0 0 Z " fill="#272826" transform="translate(210,176)"/>
<path d="M0 0 C0.66 0 1.32 0 2 0 C2 3.63 2 7.26 2 11 C2.66 11.33 3.32 11.66 4 12 C2.02 12 0.04 12 -2 12 C-1.34 11.67 -0.68 11.34 0 11 C-0.08378906 10.28972656 -0.16757813 9.57945313 -0.25390625 8.84765625 C-0.35574219 7.92855469 -0.45757812 7.00945312 -0.5625 6.0625 C-0.66691406 5.14597656 -0.77132812 4.22945313 -0.87890625 3.28515625 C-0.91886719 2.53105469 -0.95882812 1.77695313 -1 1 C-0.67 0.67 -0.34 0.34 0 0 Z " fill="#D8D8D6" transform="translate(181,91)"/>
<path d="M0 0 C0.66 0 1.32 0 2 0 C1.34 3.96 0.68 7.92 0 12 C-0.99 11.67 -1.98 11.34 -3 11 C-2.69078116 9.54096742 -2.37751201 8.08279278 -2.0625 6.625 C-1.88847656 5.81289063 -1.71445313 5.00078125 -1.53515625 4.1640625 C-1 2 -1 2 0 0 Z " fill="#C8C8C6" transform="translate(162,26)"/>
<path d="M0 0 C0.99 0 1.98 0 3 0 C2.67 3.3 2.34 6.6 2 10 C1.34 8.68 0.68 7.36 0 6 C-0.99 6.495 -0.99 6.495 -2 7 C-1.34 4.69 -0.68 2.38 0 0 Z " fill="#D2D2D0" transform="translate(166,140)"/>
<path d="M0 0 C1.98 0 3.96 0 6 0 C5.01 1.98 4.02 3.96 3 6 C3.66 6.33 4.32 6.66 5 7 C2.69 7.33 0.38 7.66 -2 8 C-2 7.34 -2 6.68 -2 6 C-1.34 5.67 -0.68 5.34 0 5 C0 3.35 0 1.7 0 0 Z " fill="#B5B5B3" transform="translate(61,136)"/>
<path d="M0 0 C1.99954746 -0.04254356 4.00041636 -0.04080783 6 0 C7 1 7 1 7.125 4.375 C7 8 7 8 6 11 C5.34 11 4.68 11 4 11 C4 8.03 4 5.06 4 2 C2.68 1.34 1.36 0.68 0 0 Z " fill="#CECECC" transform="translate(217,127)"/>
<path d="M0 0 C0.33 3.63 0.66 7.26 1 11 C-0.65 11 -2.3 11 -4 11 C-3.34 10.67 -2.68 10.34 -2 10 C-2 7.36 -2 4.72 -2 2 C-2.66 1.67 -3.32 1.34 -4 1 C-2 0 -2 0 0 0 Z " fill="#D0D0CE" transform="translate(207,110)"/>
<path d="M0 0 C4.23276335 0.7792535 5.43815936 2.58421248 8 6 C8.66 6.33 9.32 6.66 10 7 C10 7.66 10 8.32 10 9 C7.27425729 8.62669176 6.19177915 8.20805399 4.296875 6.15234375 C3.53117187 5.05599609 3.53117187 5.05599609 2.75 3.9375 C2.22921875 3.20402344 1.7084375 2.47054687 1.171875 1.71484375 C0.78515625 1.14894531 0.3984375 0.58304688 0 0 Z " fill="#CECFCC" transform="translate(51,49)"/>
<path d="M0 0 C0.66 0 1.32 0 2 0 C1.49202991 4.3177458 0.80317221 8.03302114 -1 12 C-1.66 12 -2.32 12 -3 12 C-2.68950274 10.56206608 -2.3765224 9.1246682 -2.0625 7.6875 C-1.88847656 6.88699219 -1.71445313 6.08648437 -1.53515625 5.26171875 C-1 3 -1 3 0 0 Z " fill="#B1B1AF" transform="translate(131,21)"/>
<path d="M0 0 C0.66 0 1.32 0 2 0 C1.34 2.64 0.68 5.28 0 8 C1.32 7.01 2.64 6.02 4 5 C4 5.99 4 6.98 4 8 C2.34385343 8.38218767 0.67542976 8.71395102 -1 9 C-1.33 8.67 -1.66 8.34 -2 8 C-1.28 1.28 -1.28 1.28 0 0 Z " fill="#D0D0CE" transform="translate(217,153)"/>
<path d="M0 0 C0.99 0 1.98 0 3 0 C3 2.31 3 4.62 3 7 C1.68 6.67 0.36 6.34 -1 6 C-1.042721 4.33388095 -1.04063832 2.66617115 -1 1 C-0.67 0.67 -0.34 0.34 0 0 Z " fill="#222220" transform="translate(211,70)"/>
<path d="M0 0 C1.65 0 3.3 0 5 0 C5 0.66 5 1.32 5 2 C4.34 2 3.68 2 3 2 C3 3.65 3 5.3 3 7 C1.35 7 -0.3 7 -2 7 C-2 6.34 -2 5.68 -2 5 C-1.34 5 -0.68 5 0 5 C0 3.35 0 1.7 0 0 Z " fill="#9A9A98" transform="translate(124,231)"/>
<path d="M0 0 C5.75 1.625 5.75 1.625 8 5 C2.25 9 2.25 9 0 9 C0 8.34 0 7.68 0 7 C2 5.375 2 5.375 4 4 C2.68 2.68 1.36 1.36 0 0 Z " fill="#ACACAA" transform="translate(120,210)"/>
<path d="M0 0 C1.98 0.495 1.98 0.495 4 1 C3.814375 1.78375 3.62875 2.5675 3.4375 3.375 C2.74037734 5.97089775 2.74037734 5.97089775 4 8 C2.35 8 0.7 8 -1 8 C-0.34 6.35 0.32 4.7 1 3 C0.34 3 -0.32 3 -1 3 C-0.67 2.01 -0.34 1.02 0 0 Z " fill="#ABACAA" transform="translate(130,172)"/>
<path d="M0 0 C0 0.66 0 1.32 0 2 C-0.99 2.33 -1.98 2.66 -3 3 C-3.73323796 5.01508358 -3.73323796 5.01508358 -4 7 C-3.01 7.33 -2.02 7.66 -1 8 C-2.9375 8.5625 -2.9375 8.5625 -5 9 C-6 8 -6 8 -6.25 5.625 C-6 3 -6 3 -4.6875 1.1875 C-3 0 -3 0 0 0 Z " fill="#BDBDBB" transform="translate(75,156)"/>
<path d="M0 0 C0.66 1.32 1.32 2.64 2 4 C2.66 4.33 3.32 4.66 4 5 C3.67 6.32 3.34 7.64 3 9 C1.68 9.33 0.36 9.66 -1 10 C-0.67 6.7 -0.34 3.4 0 0 Z " fill="#373735" transform="translate(223,150)"/>
<path d="M0 0 C0.66 0.33 1.32 0.66 2 1 C2 3.31 2 5.62 2 8 C1.34 8 0.68 8 0 8 C0 7.34 0 6.68 0 6 C-0.99 6 -1.98 6 -3 6 C-3 4.35 -3 2.7 -3 1 C-2.01 1.495 -2.01 1.495 -1 2 C-0.67 1.34 -0.34 0.68 0 0 Z " fill="#2C2D2B" transform="translate(182,114)"/>
<path d="M0 0 C0.99 0 1.98 0 3 0 C3 2.64 3 5.28 3 8 C2.01 8 1.02 8 0 8 C0 5.36 0 2.72 0 0 Z " fill="#21211F" transform="translate(226,112)"/>
<path d="M0 0 C0.66 0 1.32 0 2 0 C1.67 2.31 1.34 4.62 1 7 C0.01 7 -0.98 7 -2 7 C-2.125 4.625 -2.125 4.625 -2 2 C-1.34 1.34 -0.68 0.68 0 0 Z " fill="#252624" transform="translate(219,132)"/>
<path d="M0 0 C0.99 0 1.98 0 3 0 C3 2.97 3 5.94 3 9 C2.01 9 1.02 9 0 9 C0 6.03 0 3.06 0 0 Z " fill="#C2C2C0" transform="translate(212,94)"/>
<path d="M0 0 C1.98 0.495 1.98 0.495 4 1 C3.67 2.65 3.34 4.3 3 6 C1.68 5.67 0.36 5.34 -1 5 C-0.67 3.35 -0.34 1.7 0 0 Z " fill="#787876" transform="translate(180,56)"/>
<path d="M0 0 C2.475 0.495 2.475 0.495 5 1 C5.33 3.64 5.66 6.28 6 9 C4.68 8.67 3.36 8.34 2 8 C2.04125 7.05125 2.0825 6.1025 2.125 5.125 C2.34973818 1.89755144 2.34973818 1.89755144 0 0 Z " fill="#D1D1CF" transform="translate(96,52)"/>
<path d="M0 0 C0.99 0.33 1.98 0.66 3 1 C2.01 2.485 2.01 2.485 1 4 C3.31 4 5.62 4 8 4 C3.8204355 6.78637633 1.85331323 5.79562512 -3 5 C-2.01 3.35 -1.02 1.7 0 0 Z " fill="#CFD0CD" transform="translate(194,43)"/>
<path d="M0 0 C2.97 0.495 2.97 0.495 6 1 C6.33 2.98 6.66 4.96 7 7 C5.02 6.34 3.04 5.68 1 5 C0.67 3.35 0.34 1.7 0 0 Z " fill="#41413F" transform="translate(166,36)"/>
<path d="M0 0 C1.32 0.33 2.64 0.66 4 1 C3.67 3.64 3.34 6.28 3 9 C2.34 9 1.68 9 1 9 C0.67 6.03 0.34 3.06 0 0 Z " fill="#C5C6C4" transform="translate(99,27)"/>
<path d="M0 0 C1.32 0.33 2.64 0.66 4 1 C4 3.64 4 6.28 4 9 C2.68 8.67 1.36 8.34 0 8 C0 5.36 0 2.72 0 0 Z " fill="#D3D3D1" transform="translate(92,52)"/>
<path d="M0 0 C0.99 0 1.98 0 3 0 C4.46726798 3.81489674 3.43336419 6.29011622 2 10 C-1 6.375 -1 6.375 -1 3 C-0.34 2.67 0.32 2.34 1 2 C0.67 1.34 0.34 0.68 0 0 Z " fill="#353533" transform="translate(179,36)"/>
<path d="M0 0 C0.66 0 1.32 0 2 0 C1.67 1.98 1.34 3.96 1 6 C0.01 6.33 -0.98 6.66 -2 7 C-2.125 4.625 -2.125 4.625 -2 2 C-1.34 1.34 -0.68 0.68 0 0 Z " fill="#373735" transform="translate(73,180)"/>
<path d="M0 0 C0.99 0 1.98 0 3 0 C3.1875 3.375 3.1875 3.375 3 7 C2.01 7.66 1.02 8.32 0 9 C0 6.03 0 3.06 0 0 Z " fill="#CACAC8" transform="translate(70,174)"/>
<path d="M0 0 C0.99 0 1.98 0 3 0 C3 2.31 3 4.62 3 7 C2.01 7 1.02 7 0 7 C0 4.69 0 2.38 0 0 Z " fill="#1E1E1C" transform="translate(204,157)"/>
<path d="M0 0 C0.66 0 1.32 0 2 0 C1.67 1.98 1.34 3.96 1 6 C0.01 6.33 -0.98 6.66 -2 7 C-2.125 4.625 -2.125 4.625 -2 2 C-1.34 1.34 -0.68 0.68 0 0 Z " fill="#2D2D2B" transform="translate(219,154)"/>
<path d="M0 0 C1.32 0.66 2.64 1.32 4 2 C2.35 3.65 0.7 5.3 -1 7 C-1.33 5.68 -1.66 4.36 -2 3 C-1.34 3 -0.68 3 0 3 C0 2.01 0 1.02 0 0 Z " fill="#2D2D2B" transform="translate(225,132)"/>
<path d="M0 0 C0.66 0 1.32 0 2 0 C2 0.99 2 1.98 2 3 C2.99 3.33 3.98 3.66 5 4 C4.01 4 3.02 4 2 4 C2 5.32 2 6.64 2 8 C1.34 8 0.68 8 0 8 C0 6.68 0 5.36 0 4 C-0.66 3.67 -1.32 3.34 -2 3 C-1.34 3 -0.68 3 0 3 C0 2.01 0 1.02 0 0 Z " fill="#BBBBB9" transform="translate(195,113)"/>
<path d="M0 0 C0.66 0 1.32 0 2 0 C2 1.65 2 3.3 2 5 C0.68 5.33 -0.64 5.66 -2 6 C-1.125 1.125 -1.125 1.125 0 0 Z " fill="#252624" transform="translate(60,101)"/>
<path d="M0 0 C1.65 0 3.3 0 5 0 C5 0.66 5 1.32 5 2 C4.34 2 3.68 2 3 2 C3.33 3.32 3.66 4.64 4 6 C2.35 6 0.7 6 -1 6 C-0.67 4.02 -0.34 2.04 0 0 Z " fill="#A8A9A7" transform="translate(169,66)"/>
<path d="M0 0 C1.65 0 3.3 0 5 0 C5 1.32 5 2.64 5 4 C3.35 4 1.7 4 0 4 C0 2.68 0 1.36 0 0 Z " fill="#969694" transform="translate(167,58)"/>
<path d="M0 0 C3.7952131 1.49097658 5.61042731 3.75700849 8 7 C7.01 7 6.02 7 5 7 C4.34 6.01 3.68 5.02 3 4 C2.01 3.67 1.02 3.34 0 3 C0 2.01 0 1.02 0 0 Z " fill="#E2E3E0" transform="translate(99,24)"/>
<path d="M0 0 C0.66 0 1.32 0 2 0 C2 1.65 2 3.3 2 5 C0.68 5.33 -0.64 5.66 -2 6 C-1.125 1.125 -1.125 1.125 0 0 Z " fill="#3C3C3A" transform="translate(124,179)"/>
<path d="M0 0 C0.66 0 1.32 0 2 0 C2 2.64 2 5.28 2 8 C1.01 8.33 0.02 8.66 -1 9 C-0.67 6.03 -0.34 3.06 0 0 Z " fill="#CACAC8" transform="translate(59,151)"/>
<path d="M0 0 C2.26609984 4.53219967 1.92735976 6.17772925 1 11 C0.34 11 -0.32 11 -1 11 C-0.67 7.37 -0.34 3.74 0 0 Z " fill="#C6C7C4" transform="translate(145,23)"/>
<path d="M0 0 C1.32 0.33 2.64 0.66 4 1 C2.25 4.875 2.25 4.875 0 6 C-0.66 5.67 -1.32 5.34 -2 5 C-2 4.34 -2 3.68 -2 3 C-1.34 3 -0.68 3 0 3 C0 2.01 0 1.02 0 0 Z " fill="#373735" transform="translate(194,196)"/>
<path d="M0 0 C0.99 0 1.98 0 3 0 C3 1.98 3 3.96 3 6 C2.01 6 1.02 6 0 6 C0 4.02 0 2.04 0 0 Z " fill="#252523" transform="translate(43,153)"/>
<path d="M0 0 C0.12375 0.639375 0.2475 1.27875 0.375 1.9375 C0.684375 2.9584375 0.684375 2.9584375 1 4 C1.66 4.33 2.32 4.66 3 5 C1.68 5 0.36 5 -1 5 C-2.34164079 5.2981424 -3.67851173 5.62243192 -5 6 C-5 5.34 -5 4.68 -5 4 C-3.35 3.67 -1.7 3.34 0 3 C0 2.01 0 1.02 0 0 Z " fill="#ADADAB" transform="translate(45,127)"/>
<path d="M0 0 C-0.33 2.31 -0.66 4.62 -1 7 C-1.33 7 -1.66 7 -2 7 C-2 5.02 -2 3.04 -2 1 C-3.32 1.33 -4.64 1.66 -6 2 C-6.33 1.34 -6.66 0.68 -7 0 C-4.3333581 -1.33332095 -2.83319697 -0.67102033 0 0 Z " fill="#AAABA9" transform="translate(216,69)"/>
<path d="M0 0 C0.99 0 1.98 0 3 0 C2.67 1.65 2.34 3.3 2 5 C1.01 5.33 0.02 5.66 -1 6 C-0.67 4.02 -0.34 2.04 0 0 Z " fill="#323330" transform="translate(110,67)"/>
<path d="M0 0 C1.32 0.33 2.64 0.66 4 1 C4.33 2.65 4.66 4.3 5 6 C4.67 5.34 4.34 4.68 4 4 C2.68 4 1.36 4 0 4 C0 2.68 0 1.36 0 0 Z " fill="#9B9B99" transform="translate(167,31)"/>
<path d="M0 0 C0.33 0 0.66 0 1 0 C2.125 7.75 2.125 7.75 1 10 C0.01 9.67 -0.98 9.34 -2 9 C-1.34 9 -0.68 9 0 9 C-0.185625 8.071875 -0.37125 7.14375 -0.5625 6.1875 C-1 3 -1 3 0 0 Z " fill="#343533" transform="translate(110,25)"/>
<path d="M0 0 C0.66 0 1.32 0 2 0 C2 1.98 2 3.96 2 6 C1.01 6 0.02 6 -1 6 C-1.042721 4.33388095 -1.04063832 2.66617115 -1 1 C-0.67 0.67 -0.34 0.34 0 0 Z " fill="#282826" transform="translate(82,203)"/>
<path d="M0 0 C0 1.65 0 3.3 0 5 C-1.65 5 -3.3 5 -5 5 C-2.74193548 0 -2.74193548 0 0 0 Z " fill="#31312F" transform="translate(137,200)"/>
<path d="M0 0 C0.33 1.32 0.66 2.64 1 4 C1.99 4 2.98 4 4 4 C4.33 3.34 4.66 2.68 5 2 C5 2.99 5 3.98 5 5 C3.35 5.33 1.7 5.66 0 6 C-1.24546405 3.50907189 -0.7767578 2.58919267 0 0 Z " fill="#B1B1AF" transform="translate(216,135)"/>
<path d="M0 0 C2.31 0.33 4.62 0.66 7 1 C7 1.66 7 2.32 7 3 C4.69 3 2.38 3 0 3 C0 2.01 0 1.02 0 0 Z " fill="#C2C2C0" transform="translate(113,21)"/>
</svg>
